<?xml version="1.0" encoding="UTF-8"?>
<svg xmlns="http://www.w3.org/2000/svg" xmlns:xlink="http://www.w3.org/1999/xlink" viewBox="0 0 512 512" width="512px" height="512px">
<g id="surface74690318">
<rect x="0" y="0" width="512" height="512" style="fill:rgb(100%,100%,100%);fill-opacity:1;stroke:none;"/>
<path style=" stroke:none;fill-rule:nonzero;fill:rgb(0%,0%,0%);fill-opacity:1;" d="M 256 2.5 C 116 2.5 2.5 116 2.5 256 C 2.5 375.699219 85.492188 475.960938 197.0625 502.539062 C 191.289062 501.164062 185.566406 499.625 179.949219 497.867188 L 179.949219 439.789062 C 179.949219 439.789062 170.445312 442.957031 157.769531 442.957031 C 122.308594 442.957031 107.574219 411.316406 103.898438 395.425781 C 101.667969 385.742188 95.835938 376.570312 89.578125 370.960938 C 82.097656 364.292969 78.597656 364.273438 78.550781 361.992188 C 78.453125 357.203125 84.964844 357.398438 88.054688 357.398438 C 103.898438 357.398438 115.910156 374.257812 121.488281 382.972656 C 135.304688 404.492188 150.132812 408.101562 157.769531 408.101562 C 167.273438 408.101562 175.484375 406.675781 181.140625 403.945312 C 183.753906 385.539062 191.941406 369.140625 205.300781 357.398438 C 145.855469 345.515625 103.898438 311.417969 103.898438 256 C 103.898438 227.453125 115.355469 201.214844 134.445312 180.027344 C 132.496094 174.5 129.25 163.316406 129.25 145.09375 C 129.25 133.050781 130.089844 118.273438 135.585938 103.898438 C 135.585938 103.898438 171.742188 104.152344 205.835938 136.445312 C 221.574219 131.863281 238.410156 129.25 256 129.25 C 273.589844 129.25 290.425781 131.863281 306.164062 136.445312 C 340.257812 104.152344 376.414062 103.898438 376.414062 103.898438 C 381.941406 118.273438 382.75 133.050781 382.75 145.09375 C 382.75 164.738281 380.136719 176.195312 378.539062 181.140625 C 397.042969 202.132812 408.101562 227.960938 408.101562 256 C 408.101562 311.417969 366.144531 345.515625 306.699219 357.398438 C 322.574219 371.34375 332.050781 391.652344 332.050781 414.4375 L 332.050781 497.867188 C 326.433594 499.632812 320.71875 501.164062 314.9375 502.539062 C 426.507812 475.960938 509.5 375.699219 509.5 256 C 509.5 116 396 2.5 256 2.5 Z M 273.675781 508.816406 C 267.835938 509.226562 261.949219 509.5 256 509.5 C 261.949219 509.5 267.828125 509.21875 273.675781 508.816406 Z M 312.414062 503.125 C 301.066406 505.707031 289.433594 507.519531 277.558594 508.523438 C 289.433594 507.519531 301.066406 505.699219 312.414062 503.125 Z M 256 509.5 C 250.050781 509.5 244.164062 509.226562 238.324219 508.816406 C 244.171875 509.21875 250.050781 509.5 256 509.5 Z M 234.433594 508.523438 C 222.566406 507.519531 210.925781 505.707031 199.585938 503.125 C 210.933594 505.699219 222.566406 507.519531 234.433594 508.523438 Z M 234.433594 508.523438 "/>
</g>
</svg>
